<svg xmlns="http://www.w3.org/2000/svg" width="24" height="25" viewBox="0 0 24 25" fill="none">
  <path fill-rule="evenodd" clip-rule="evenodd" d="M8.70711 17.7091C8.31658 18.0996 7.68342 18.0996 7.29289 17.7091L2.29289 12.7091C1.90237 12.3185 1.90237 11.6854 2.29289 11.2948L7.29289 6.29485C7.68342 5.90432 8.31658 5.90432 8.70711 6.29485C9.09763 6.68537 9.09763 7.31854 8.70711 7.70906L4.41421 12.002L8.70711 16.2948C9.09763 16.6854 9.09763 17.3185 8.70711 17.7091Z" fill="#282929"/>
  <path fill-rule="evenodd" clip-rule="evenodd" d="M16 12.002C16 12.5542 15.5523 13.002 15 13.002L3 13.002C2.44771 13.002 2 12.5542 2 12.002C2 11.4497 2.44771 11.002 3 11.002L15 11.002C15.5523 11.002 16 11.4497 16 12.002Z" fill="#282929"/>
  <path fill-rule="evenodd" clip-rule="evenodd" d="M19 20.002C19.2652 20.002 19.5196 19.8966 19.7071 19.7091C19.8946 19.5215 20 19.2672 20 19.002L20 5.00195C20 4.73674 19.8946 4.48238 19.7071 4.29485C19.5196 4.10731 19.2652 4.00195 19 4.00195L15 4.00195C14.4477 4.00195 14 3.55424 14 3.00195C14 2.44967 14.4477 2.00195 15 2.00195L19 2.00195C19.7957 2.00195 20.5587 2.31802 21.1213 2.88063C21.6839 3.44324 22 4.2063 22 5.00195L22 19.002C22 19.7976 21.6839 20.5607 21.1213 21.1233C20.5587 21.6859 19.7956 22.002 19 22.002L15 22.002C14.4477 22.002 14 21.5542 14 21.002C14 20.4497 14.4477 20.002 15 20.002L19 20.002Z" fill="#282929"/>
</svg>