<svg width="150" height="32" viewBox="0 0 150 32" fill="none" xmlns="http://www.w3.org/2000/svg">
<g clip-path="url(#clip0_15011_14043)">
<path d="M34.1653 9.5104V21.6832C34.1653 22.9376 33.8587 24.1152 33.3093 25.1392C33.2582 25.2416 33.1943 25.344 33.1304 25.4592C33.6543 26.1632 34.3953 26.6496 34.8936 26.9184C34.9319 26.8672 34.9575 26.816 34.9958 26.752C35.903 25.28 36.4268 23.5392 36.4268 21.6832V10.7136L45.6134 4.352V22.2592C45.6134 26.3552 42.2914 29.696 38.19 29.696C36.5674 29.696 35.0725 29.1712 33.8459 28.288C32.9388 27.7248 32.236 26.688 32.236 26.688C31.3161 25.4464 30.7795 23.9232 30.7795 22.2592V20.9664V14.784L17.0572 5.2608V22.2464C17.0572 23.8976 16.5205 25.4336 15.6006 26.6624C15.6006 26.6624 14.8851 27.6992 13.9779 28.2624C12.7514 29.1456 11.2565 29.6704 9.63381 29.6704C5.54523 29.6704 2.21047 26.3424 2.21047 22.2336V4.3392L11.397 10.7136V21.6832C11.397 23.5392 11.9209 25.28 12.828 26.752C12.8664 26.8032 12.8919 26.8544 12.9302 26.9184C13.4285 26.6496 14.1696 26.1632 14.6934 25.4592C14.6296 25.3568 14.5784 25.2544 14.5146 25.1392C13.9652 24.1024 13.6585 22.9248 13.6585 21.6832V9.5104L-0.0510254 0V22.2592C-0.0510254 27.6096 4.2931 31.9744 9.64659 31.9744C11.9592 31.9744 14.0929 31.1552 15.7539 29.7984C15.7539 29.7984 16.5461 29.12 17.3638 28.1216C18.6031 26.496 19.3314 24.4608 19.3314 22.2592V9.6128L28.518 15.9872V21.696C28.518 25.792 25.1832 29.1328 21.0946 29.1328C20.3025 29.1328 19.5359 29.0048 18.8204 28.7744C18.4754 29.3248 17.9388 30.0288 17.1977 30.592C18.3859 31.1168 19.702 31.4112 21.0946 31.4112C24.6849 31.4112 27.828 29.44 29.5018 26.5344C29.7829 27.0976 30.1023 27.6352 30.4856 28.1344C31.3033 29.1328 32.0955 29.8112 32.0955 29.8112C33.7692 31.168 35.8902 31.9872 38.2028 31.9872C43.5435 31.9872 47.9004 27.6352 47.9004 22.2848V0L34.1653 9.5104Z" fill="url(#paint0_linear_15011_14043)"/>
<path d="M79.1015 9.86877L75.5878 23.6928H70.1705L68.2539 15.3088L66.2608 23.6928H60.8689L57.3809 9.86877H62.1722L63.7182 19.0336L65.7625 9.86877H70.9243L73.0453 19.0592L74.5657 9.86877H79.1015Z" fill="black"/>
<path d="M92.0827 11.3408C93.0027 12.4032 93.4754 13.8368 93.4754 15.6416V23.7056H88.6585V16.2816C88.6585 15.488 88.4541 14.8736 88.0453 14.4256C87.6364 13.9776 87.087 13.7472 86.397 13.7472C85.6815 13.7472 85.1066 13.9776 84.6977 14.4256C84.2889 14.8736 84.0844 15.5008 84.0844 16.2816V23.7056H79.2676V5.45276H84.0717V11.84C84.4933 11.2128 85.081 10.7136 85.8093 10.3296C86.5376 9.94556 87.3809 9.75356 88.3263 9.75356C89.8979 9.74076 91.15 10.2784 92.0827 11.3408Z" fill="black"/>
<path d="M95.277 7.8848C94.7659 7.4112 94.4976 6.8352 94.4976 6.1184C94.4976 5.4016 94.7531 4.8 95.277 4.3136C95.788 3.84 96.478 3.5968 97.334 3.5968C98.1645 3.5968 98.8417 3.84 99.3655 4.3136C99.8766 4.7872 100.145 5.3888 100.145 6.1184C100.145 6.8224 99.8894 7.4112 99.3655 7.8848C98.8417 8.3584 98.1773 8.5888 97.334 8.5888C96.478 8.5888 95.8008 8.3584 95.277 7.8848ZM99.7233 9.8688V23.6928H94.9064V9.8688H99.7233Z" fill="black"/>
<path d="M109.383 19.5841V23.7057H107.287C103.761 23.7057 101.998 21.9521 101.998 18.4577V13.9009H100.298V9.86886H101.998V6.51526H106.84V9.86886H109.344V13.8881H106.84V18.5217C106.84 18.9057 106.93 19.1745 107.096 19.3409C107.262 19.5073 107.556 19.5841 107.964 19.5841H109.383Z" fill="black"/>
<path d="M123.488 17.7536H114.353C114.404 18.5088 114.608 19.072 114.979 19.4432C115.349 19.8144 115.822 19.9936 116.397 19.9936C117.202 19.9936 117.777 19.6352 118.122 18.9056H123.258C123.041 19.8528 122.632 20.7104 122.019 21.4528C121.405 22.1952 120.626 22.784 119.693 23.2192C118.761 23.6416 117.726 23.8592 116.589 23.8592C115.221 23.8592 114.02 23.5776 112.96 23.0016C111.9 22.4256 111.069 21.6064 110.481 20.5312C109.881 19.4688 109.587 18.2016 109.587 16.7552C109.587 15.3088 109.881 14.0544 110.469 12.992C111.056 11.9296 111.887 11.1104 112.934 10.5344C113.995 9.95836 115.209 9.67676 116.589 9.67676C117.956 9.67676 119.157 9.95836 120.204 10.5088C121.252 11.072 122.07 11.8656 122.67 12.9152C123.258 13.9648 123.552 15.1808 123.552 16.6016C123.552 16.9984 123.526 17.3824 123.488 17.7536ZM118.633 15.4112C118.633 14.8224 118.441 14.3616 118.045 14.016C117.649 13.6832 117.164 13.5168 116.563 13.5168C115.975 13.5168 115.49 13.6832 115.107 14.0032C114.723 14.3232 114.48 14.7968 114.365 15.424H118.633V15.4112Z" fill="black"/>
<path d="M130.771 11.5584H127.641V23.5648H125.916V11.5584H124.063V10.112H125.928V9.17756C125.928 7.71836 126.299 6.64316 127.053 5.95196C127.794 5.26076 129.008 4.91516 130.681 4.91516V6.39996C129.57 6.39996 128.778 6.61756 128.33 7.03996C127.883 7.46236 127.653 8.17916 127.653 9.19036V10.112H130.784V11.5584H130.771Z" fill="black"/>
<path d="M133.978 5.32471V23.5647H132.253V5.32471H133.978Z" fill="black"/>
<path d="M136.635 7.20641C136.393 6.96321 136.265 6.65601 136.265 6.29761C136.265 5.93921 136.393 5.63201 136.635 5.40161C136.878 5.15841 137.172 5.04321 137.517 5.04321C137.862 5.04321 138.156 5.15841 138.399 5.40161C138.641 5.64481 138.769 5.93921 138.769 6.29761C138.769 6.65601 138.641 6.96321 138.399 7.20641C138.156 7.44961 137.862 7.57761 137.517 7.57761C137.172 7.57761 136.878 7.44961 136.635 7.20641ZM138.373 10.112V23.5648H136.648V10.112H138.373Z" fill="black"/>
<path d="M148.096 23.5647L144.634 18.1375L141.286 23.5647H139.472L143.803 16.8319L139.51 10.1119H141.452L144.877 15.4623L148.199 10.1119H150L145.72 16.7679L150.051 23.5647H148.096Z" fill="black"/>
</g>
<defs>
<linearGradient id="paint0_linear_15011_14043" x1="-13.1152" y1="16.6315" x2="53.06" y2="15.2971" gradientUnits="userSpaceOnUse">
<stop stop-color="#FFC001"/>
<stop offset="0.1927" stop-color="#FB5D02"/>
<stop offset="0.376" stop-color="#F7197E"/>
<stop offset="0.5592" stop-color="#DA0FE7"/>
<stop offset="0.7737" stop-color="#8026EA"/>
<stop offset="1" stop-color="#6216D2"/>
</linearGradient>
<clipPath id="clip0_15011_14043">
<rect width="150" height="32" fill="white"/>
</clipPath>
</defs>
</svg>
