<svg width="40" height="40" viewBox="0 0 40 40" fill="none" xmlns="http://www.w3.org/2000/svg">
<rect width="40" height="40" rx="8" fill="#8026EA"/>
<path d="M25.4725 16.5481V23.0294C25.4725 23.6973 25.3087 24.3243 25.0151 24.8695C24.9878 24.924 24.9536 24.9785 24.9195 25.0399C25.1994 25.4147 25.5954 25.6737 25.8617 25.8168C25.8822 25.7895 25.8959 25.7623 25.9164 25.7282C26.4011 24.9444 26.6811 24.0176 26.6811 23.0294V17.1887L31.5903 13.8016V23.3361C31.5903 25.5169 29.8151 27.2957 27.6233 27.2957C26.7562 27.2957 25.9573 27.0163 25.3018 26.546C24.8171 26.2462 24.4415 25.6941 24.4415 25.6941C23.9499 25.033 23.6632 24.222 23.6632 23.3361V22.6477V19.356L16.33 14.2854V23.3292C16.33 24.2084 16.0432 25.0262 15.5516 25.6805C15.5516 25.6805 15.1693 26.2325 14.6845 26.5324C14.029 27.0026 13.2302 27.2821 12.363 27.2821C10.1781 27.2821 8.39603 25.5101 8.39603 23.3224V13.7947L13.3053 17.1887V23.0294C13.3053 24.0176 13.5852 24.9444 14.07 25.7282C14.0905 25.7555 14.1041 25.7827 14.1246 25.8168C14.3909 25.6737 14.7869 25.4147 15.0669 25.0399C15.0327 24.9853 15.0054 24.9308 14.9713 24.8695C14.6777 24.3174 14.5138 23.6904 14.5138 23.0294V16.5481L7.1875 11.4844V23.3361C7.1875 26.1848 9.50898 28.5088 12.3699 28.5088C13.6057 28.5088 14.746 28.0726 15.6336 27.3502C15.6336 27.3502 16.0569 26.989 16.4939 26.4574C17.1562 25.5919 17.5454 24.5083 17.5454 23.3361V16.6026L22.4546 19.9966V23.0362C22.4546 25.2171 20.6725 26.9958 18.4876 26.9958C18.0643 26.9958 17.6546 26.9277 17.2723 26.805C17.0879 27.0981 16.8011 27.4729 16.4051 27.7728C17.0401 28.0522 17.7434 28.2089 18.4876 28.2089C20.4063 28.2089 22.0859 27.1594 22.9804 25.6123C23.1306 25.9122 23.3013 26.1984 23.5061 26.4642C23.9431 26.9958 24.3664 27.357 24.3664 27.357C25.2609 28.0795 26.3943 28.5156 27.6301 28.5156C30.4842 28.5156 32.8125 26.1984 32.8125 23.3497V11.4844L25.4725 16.5481Z" fill="white"/>
</svg>
